<?xml version="1.0" encoding="utf-8"?>
<!-- Generator: Adobe Illustrator 16.0.4, SVG Export Plug-In . SVG Version: 6.00 Build 0)  -->
<!DOCTYPE svg PUBLIC "-//W3C//DTD SVG 1.1//EN" "http://www.w3.org/Graphics/SVG/1.1/DTD/svg11.dtd">
<svg version="1.1" id="Layer_1" xmlns="http://www.w3.org/2000/svg" xmlns:xlink="http://www.w3.org/1999/xlink" x="0px" y="0px"
	 width="29px" height="29px" viewBox="0 0 29 29" style="enable-background:new 0 0 29 29;" xml:space="preserve">
<path style="fill:#FFFFFF;" d="M14.5,29C6.5,29,0,22.5,0,14.5C0,6.5,6.5,0,14.5,0S29,6.5,29,14.5C29,22.5,22.5,29,14.5,29z
	 M23.9,13.6l-6.8-6.8l-1.7-1.7c-0.2-0.2-0.5-0.3-0.8-0.3s-0.6,0.1-0.8,0.3l-1.7,1.7l-6.8,6.8c-0.2,0.2-0.3,0.5-0.3,0.8
	c0,0.3,0.1,0.6,0.3,0.9L6.8,17c0.2,0.2,0.5,0.3,0.9,0.3s0.6-0.1,0.8-0.3l3.6-3.6V23c0,0.7,0.5,1.2,1.2,1.2h2.4
	c0.7,0,1.2-0.5,1.2-1.2v-9.5l3.6,3.6c0.2,0.2,0.5,0.4,0.8,0.4c0.3,0,0.6-0.1,0.9-0.4l1.7-1.7c0.2-0.2,0.3-0.5,0.3-0.9
	C24.2,14.2,24.1,13.9,23.9,13.6z"/>
</svg>
