<?xml version="1.0" encoding="utf-8"?>
<!-- Generator: Adobe Illustrator 16.0.4, SVG Export Plug-In . SVG Version: 6.00 Build 0)  -->
<!DOCTYPE svg PUBLIC "-//W3C//DTD SVG 1.1//EN" "http://www.w3.org/Graphics/SVG/1.1/DTD/svg11.dtd">
<svg version="1.1" id="Layer_1" xmlns="http://www.w3.org/2000/svg" xmlns:xlink="http://www.w3.org/1999/xlink" x="0px" y="0px"
	 width="110.2px" height="13px" viewBox="0 0 110.2 13" style="enable-background:new 0 0 110.2 13;" xml:space="preserve">
<path style="fill:#FFFFFF;" d="M6.1,9c0-0.9-0.5-1.4-1.4-1.4H3.7v2.7h1.1C5.7,10.4,6.1,9.9,6.1,9 M5.9,4.1c0-0.8-0.4-1.2-1.2-1.2h-1
	v2.4h1C5.5,5.3,5.9,4.9,5.9,4.1 M9.8,9.2c0,2.5-1.3,3.7-3.9,3.7h-4H0v-1.6V2V0.4h1.8h3.7c2.5,0,3.8,1,3.8,3c0,1.3-0.5,2.2-1.5,2.7
	C9.2,6.7,9.8,7.8,9.8,9.2"/>
<path style="fill:#FFFFFF;" d="M20.6,9.5c0,1.2-0.5,2.1-1.5,2.6c-1,0.6-2.2,0.9-3.4,0.9c-1.3,0-2.4-0.3-3.4-0.9
	c-1-0.6-1.5-1.5-1.5-2.6V0.4h1.8c1.2,0,1.8,0.5,1.8,1.6v7c0,0.7,0.4,1.1,1.3,1.1c0.8,0,1.3-0.4,1.3-1.1V0.4h1.8
	c1.2,0,1.8,0.5,1.8,1.6V9.5z"/>
<path style="fill:#FFFFFF;" d="M25.6,2.9v2.9h1.1c1,0,1.6-0.5,1.6-1.4s-0.5-1.4-1.6-1.4H25.6z M29.7,7.6l1.7,2.3
	c0.5,0.5,0.7,1,0.7,1.5c0,0.4-0.2,0.8-0.7,1.2C30.9,12.9,30.5,13,30,13c-0.5,0-1-0.3-1.4-0.9l-2.9-4v3.1c0,1.1-0.6,1.6-1.8,1.6H22
	V0.4h1.8H28c1,0,1.9,0.4,2.6,1.2s1,1.6,1,2.5C31.6,5.7,30.9,6.9,29.7,7.6"/>
<path style="fill:#FFFFFF;" d="M44.1,5.2v5.1c0,0.8-0.4,1.4-1.2,1.9c-0.8,0.5-2.2,0.8-4,0.8c-1.9,0-3.4-0.6-4.7-1.8
	s-1.9-2.8-1.9-4.7c0-1.9,0.6-3.5,1.9-4.7C35.4,0.6,36.9,0,38.6,0c1.7,0,3.1,0.3,4,0.8C43.5,1.4,44,1.9,44,2.4c0,0.5-0.1,0.9-0.5,1.3
	s-0.6,0.6-1,0.6c-0.3,0-0.8-0.2-1.4-0.5c-0.6-0.3-1.4-0.5-2.4-0.5c-1,0-1.7,0.3-2.2,0.9c-0.5,0.6-0.7,1.4-0.7,2.3s0.3,1.7,0.8,2.3
	c0.5,0.6,1.2,0.9,2.1,0.9c0.9,0,1.4-0.1,1.7-0.4v-1h-0.6c-1.1,0-1.7-0.5-1.7-1.6V5.2H44.1z"/>
<path style="fill:#FFFFFF;" d="M45.3,12.9V0.4h7.7v1.5c0,1-0.5,1.5-1.4,1.5H49v1.8h3.7v1.5c0,1-0.5,1.5-1.4,1.5H49V10h4.1v1.5
	c0,1-0.5,1.5-1.4,1.5H45.3z"/>
<path style="fill:#FFFFFF;" d="M58,2.9v2.9h1.1c1,0,1.6-0.5,1.6-1.4s-0.5-1.4-1.6-1.4H58z M62,7.6l1.7,2.3c0.5,0.5,0.7,1,0.7,1.5
	c0,0.4-0.2,0.8-0.7,1.2c-0.4,0.3-0.9,0.5-1.3,0.5c-0.5,0-1-0.3-1.4-0.9l-2.9-4v3.1c0,1.1-0.6,1.6-1.8,1.6h-1.8V0.4h1.8h4.2
	c1,0,1.9,0.4,2.6,1.2c0.7,0.8,1,1.6,1,2.5C63.9,5.7,63.3,6.9,62,7.6"/>
<path style="fill:#FFFFFF;" d="M76.8,6.6l2.9,3.3c0.4,0.5,0.6,0.9,0.6,1.4c0,0.4-0.3,0.8-0.7,1.2c-0.4,0.4-0.9,0.5-1.4,0.5
	c-0.5-0.1-1-0.3-1.4-0.9l-3.6-4v3.1c0,1.1-0.6,1.6-1.8,1.6h-1.8V0.4h3.7V5l3.6-3.9c0.4-0.5,0.9-0.8,1.4-0.9c0.5-0.1,0.9,0.1,1.4,0.5
	c0.4,0.4,0.6,0.8,0.7,1.2c0,0.4-0.2,0.9-0.6,1.4L76.8,6.6z"/>
<path style="fill:#FFFFFF;" d="M84.9,11.3c0,1.1-0.6,1.6-1.8,1.6h-1.8V2c0-1.1,0.6-1.6,1.8-1.6h1.8V11.3z"/>
<path style="fill:#FFFFFF;" d="M93.8,6V2c0-1.1,0.6-1.6,1.8-1.6h1.8v10.9c0,1.1-0.6,1.6-1.8,1.6c-0.7,0-1.2-0.2-1.6-0.7l-4.1-4.9v4
	c0,1.1-0.6,1.6-1.8,1.6h-1.8V0.4l1.8,0c0.8,0,1.4,0.2,1.7,0.8L93.8,6z"/>
<path style="fill:#FFFFFF;" d="M110.2,5.2v5.1c0,0.8-0.4,1.4-1.2,1.9c-0.8,0.5-2.2,0.8-4,0.8s-3.4-0.6-4.7-1.8
	c-1.2-1.2-1.9-2.8-1.9-4.7c0-1.9,0.6-3.5,1.9-4.7c1.2-1.2,2.7-1.8,4.5-1.8c1.7,0,3.1,0.3,4,0.8c0.9,0.5,1.4,1.1,1.4,1.5
	c0,0.5-0.1,0.9-0.5,1.3c-0.3,0.4-0.6,0.6-1,0.6c-0.3,0-0.8-0.2-1.4-0.5c-0.6-0.3-1.4-0.5-2.4-0.5c-1,0-1.7,0.3-2.2,0.9
	c-0.5,0.6-0.7,1.4-0.7,2.3s0.3,1.7,0.8,2.3c0.5,0.6,1.2,0.9,2.1,0.9c0.9,0,1.4-0.1,1.7-0.4v-1H106c-1.1,0-1.7-0.5-1.7-1.6V5.2H110.2
	z"/>
</svg>
