<?xml version="1.0" encoding="utf-8"?>
<!-- Generator: Adobe Illustrator 16.0.4, SVG Export Plug-In . SVG Version: 6.00 Build 0)  -->
<!DOCTYPE svg PUBLIC "-//W3C//DTD SVG 1.1//EN" "http://www.w3.org/Graphics/SVG/1.1/DTD/svg11.dtd">
<svg version="1.1" id="Layer_1" xmlns="http://www.w3.org/2000/svg" xmlns:xlink="http://www.w3.org/1999/xlink" x="0px" y="0px"
	 width="23.8px" height="29.1px" viewBox="0 0 23.8 29.1" style="enable-background:new 0 0 23.8 29.1;" xml:space="preserve">
<path style="fill:#FFFFFF;" d="M18.9,24.1c-0.1,0.1-0.3,0.2-0.4,0.2H5.4c-0.2,0-0.3-0.1-0.4-0.2c-0.1-0.1-0.2-0.3-0.2-0.4v-1.2
	c0-0.2,0.1-0.3,0.2-0.4c0.1-0.1,0.3-0.2,0.4-0.2h13.1c0.2,0,0.3,0.1,0.4,0.2c0.1,0.1,0.2,0.3,0.2,0.4v1.2C19,23.8,19,24,18.9,24.1z
	 M18.9,19.2c-0.1,0.1-0.3,0.2-0.4,0.2H5.4c-0.2,0-0.3-0.1-0.4-0.2c-0.1-0.1-0.2-0.3-0.2-0.4v-1.2c0-0.2,0.1-0.3,0.2-0.4
	C5,17,5.2,17,5.4,17h13.1c0.2,0,0.3,0.1,0.4,0.2c0.1,0.1,0.2,0.3,0.2,0.4v1.2C19,19,19,19.1,18.9,19.2z M13.7,12.1
	c-0.5,0-0.9-0.2-1.3-0.5c-0.3-0.4-0.5-0.8-0.5-1.3V0H1.8C1.3,0,0.9,0.2,0.5,0.5C0.2,0.9,0,1.3,0,1.8v25.5c0,0.5,0.2,0.9,0.5,1.3
	c0.3,0.4,0.8,0.5,1.3,0.5H22c0.5,0,0.9-0.2,1.3-0.5c0.3-0.4,0.5-0.8,0.5-1.3V12.1H13.7z M22.5,7.2l-5.8-5.9c-0.6-0.6-1.4-1-2.5-1.2
	v9.6h9.5C23.6,8.7,23.2,7.8,22.5,7.2L22.5,7.2z"/>
</svg>
