<?xml version="1.0" encoding="utf-8"?>
<!-- Generator: Adobe Illustrator 16.0.0, SVG Export Plug-In . SVG Version: 6.00 Build 0)  -->
<!DOCTYPE svg PUBLIC "-//W3C//DTD SVG 1.1//EN" "http://www.w3.org/Graphics/SVG/1.1/DTD/svg11.dtd">
<svg version="1.1" id="Layer_1" xmlns="http://www.w3.org/2000/svg" xmlns:xlink="http://www.w3.org/1999/xlink" x="0px" y="0px"
	 width="38.6px" height="31.8px" viewBox="0 0 38.6 31.8" enable-background="new 0 0 38.6 31.8" xml:space="preserve">
<path fill="#762823" d="M34.6,7.9c0,0.3,0,0.7,0,1c0,10.7-8,22.801-22.5,22.801c-4.5,0-8.6-1.301-12.2-3.601
	C0.5,28.201,1.2,28.201,1.8,28.201c3.7,0,7.1-1.301,9.8-3.4c-3.399-0.1-6.399-2.4-7.399-5.6C4.6,19.4,5.1,19.4,5.6,19.4
	c0.8,0,1.4-0.1,2.101-0.3C4.1,18.3,1.4,15.1,1.4,11.2v-0.1c1,0.6,2.301,0.9,3.5,1C3,10.7,1.6,8.3,1.6,5.5C1.6,4,2,2.7,2.7,1.5
	C6.6,6.3,12.4,9.5,19,9.8c-0.2-0.5-0.3-1.2-0.3-1.8c0-4.4,3.5-8,8-8C29,0,31,0.9,32.4,2.5c1.801-0.3,3.5-1,5-1.9
	C36.9,2.5,35.6,4,34,5c1.6-0.3,3.1-0.7,4.5-1.3C37.5,5.4,36.1,6.7,34.6,7.9z"/>
</svg>
