<?xml version="1.0" encoding="utf-8"?>
<!-- Generator: Adobe Illustrator 16.0.0, SVG Export Plug-In . SVG Version: 6.00 Build 0)  -->
<!DOCTYPE svg PUBLIC "-//W3C//DTD SVG 1.1//EN" "http://www.w3.org/Graphics/SVG/1.1/DTD/svg11.dtd">
<svg version="1.1" id="Layer_1" xmlns="http://www.w3.org/2000/svg" xmlns:xlink="http://www.w3.org/1999/xlink" x="0px" y="0px"
	 width="36.4px" height="36.8px" viewBox="0 0 36.4 36.8" enable-background="new 0 0 36.4 36.8" xml:space="preserve">
<path fill="#762823" d="M36.4,5.7V12h-9.2c-2-2.9-5.2-4.7-9-4.7c-3.7,0-7,1.8-9,4.7H0V5.7C0,2.6,2.5,0,5.7,0h25.1
	C33.9,0,36.4,2.6,36.4,5.7z M29,16.3h7.5V31c0,3.201-2.5,5.801-5.7,5.801H5.7C2.5,36.8,0,34.201,0,31V16.3h7.4
	C7.3,17,7.2,17.7,7.2,18.4c0,6.1,4.9,11.1,11,11.1c6,0,11-5.1,11-11.1C29.2,17.6,29.1,17,29,16.3z M18.2,25.3
	c-3.7,0-6.8-3.1-6.8-6.9c0-3.9,3-6.9,6.8-6.9c3.7,0,6.8,3,6.8,6.9C25,22.201,21.9,25.3,18.2,25.3z M33.4,4c0-0.6-0.4-1-1-1h-3
	c-0.5,0-1,0.4-1,1v3.1c0,0.5,0.5,1,1,1h3c0.6,0,1-0.5,1-1V4z"/>
</svg>
