<?xml version="1.0" encoding="utf-8"?>
<!-- Generator: Adobe Illustrator 16.0.0, SVG Export Plug-In . SVG Version: 6.00 Build 0)  -->
<!DOCTYPE svg PUBLIC "-//W3C//DTD SVG 1.1//EN" "http://www.w3.org/Graphics/SVG/1.1/DTD/svg11.dtd">
<svg version="1.1" id="Layer_1" xmlns="http://www.w3.org/2000/svg" xmlns:xlink="http://www.w3.org/1999/xlink" x="0px" y="0px"
	 width="36.4px" height="36.8px" viewBox="0 0 36.4 36.8" enable-background="new 0 0 36.4 36.8" xml:space="preserve">
<path fill="#762823" d="M36.4,4.5v27.701c0,2.5-2,4.6-4.601,4.6H25V23.6h4.8v-5.7H25v-3c0-0.8,0.3-1.3,1.2-1.3h3.6V7h-4.1
	c-4.1,0-7.4,3.5-7.4,8v2.8H14v5.7h4.4V36.8H4.6C2,36.8,0,34.701,0,32.201V4.5C0,2.1,2,0,4.6,0h27.3C34.4,0,36.4,2.1,36.4,4.5z"/>
</svg>
