<?xml version="1.0" encoding="utf-8"?>
<!-- Generator: Adobe Illustrator 16.0.4, SVG Export Plug-In . SVG Version: 6.00 Build 0)  -->
<!DOCTYPE svg PUBLIC "-//W3C//DTD SVG 1.1//EN" "http://www.w3.org/Graphics/SVG/1.1/DTD/svg11.dtd">
<svg version="1.1" id="Layer_1" xmlns="http://www.w3.org/2000/svg" xmlns:xlink="http://www.w3.org/1999/xlink" x="0px" y="0px"
	 width="106.7px" height="106.7px" viewBox="0 0 106.7 106.7" style="enable-background:new 0 0 106.7 106.7;" xml:space="preserve"
	>
<path style="fill:#FFFFFF;stroke:#ED7902;stroke-width:5;stroke-miterlimit:10;" d="M53.4,104.2c-28,0-50.8-22.8-50.8-50.8
	S25.3,2.5,53.4,2.5c28,0,50.8,22.8,50.8,50.8S81.4,104.2,53.4,104.2z M53.4,7.3c-25.4,0-46,20.6-46,46s20.6,46,46,46s46-20.6,46-46
	S78.7,7.3,53.4,7.3z"/>
<path id="XMLID_1_" style="fill:#FFFFFF;" d="M5,53.3C5,26.6,26.6,4.9,53.4,4.9s48.4,21.7,48.4,48.4s-21.7,48.4-48.4,48.4
	S5,80.1,5,53.3"/>
<path style="fill:#FDBD10;" d="M74.9,21.7c0.2-0.5-0.2-1-0.2-1s-3.3-5.6-14.8-6.8c-6.2-0.7-14.6,0.6-20.5,3.8C28.6,23.5,27,33,27,33
	c-0.1,0.2-0.2,0.9,0.1,1.2c0.2,0.3,0.6,0.3,1,0.2c3.8-1.3,15-5,22.2-6.9c10.1-2.7,18.4-4.3,23.8-5.2C74.5,22.2,74.8,22.1,74.9,21.7"
	/>
<path style="fill:#0066B2;" d="M86.5,66.5c-6.1,13.6-17.7,23.1-32.9,23.3C42.5,90,32.7,86.2,25.6,79.5l-4.3,1.8l0-6.6
	C16.7,68.5,14,60.5,14,51.5c0-23.1,17.7-41.3,42.4-41.3c4,0,7.7,0.6,10.4,1.2c-4.2-1.4-8.4-2.1-13.1-2.1C27.2,9.3,9.4,30.8,9.4,53
	c0,24.1,18.9,44.4,43.8,44.4c23.8,0,36.6-16.7,40.7-26.8L86.5,66.5z"/>
<path style="fill:#FDBD10;" d="M36,78.1c-0.2,0.6,0.3,1.1,0.3,1.1c2.4,3,13,6.8,24.6,4C78.5,79,82.3,66.5,82.7,64.8
	c0.1-0.4,0.2-0.9-0.2-1.3c-0.3-0.3-0.7-0.3-1.2-0.2C69,66.2,48.6,72.4,36.8,77.5C36.3,77.7,36.1,77.8,36,78.1"/>
<path style="fill:#FFFFFF;" d="M41.7,17.6c-6.5,2.9-10.9,9.7-11.1,12.6c-0.1,1.1,1.4,1.3,1.6,0.1C33.5,25,37.7,20,41.7,17.6"/>
<path style="fill:#FFFFFF;" d="M63.2,22.5c3.5-0.9,5.4-1,5.5-2.6c0.1-2.6-7.4-5.7-14.3-5.1c7,0.5,11.2,3.2,11.2,5
	C65.6,21,64.6,22.1,63.2,22.5"/>
<path style="fill:#FFFFFF;" d="M65.4,80.4c5.3-2.1,10.3-6,13.1-11.9c0.8-1.7-1.5-2.6-2.2-0.6C74.7,72.1,71.3,77,65.4,80.4"/>
<path style="fill:#EC1C24;" d="M80.3,61.8c3.5-0.4,5.9-1.8,7.2-3.1c1.2-1.2,1.5-2.8,1.5-4c0-1.8,0-7.4,0-7.4l-9.2,2c0,0,0,0.7,0,2.2
	c0,1.4,0.7,2.2,2.2,1.9c0.5-0.1,1.2-0.3,1.2-0.3l0,1.8c0,0,0.1,1-2.2,1.4c-3,0.5-4.4-1.4-4.5-4.7c0.1-3.5,2.1-5.6,4.5-6.1
	c2.7-0.6,4.3,0,5.2,0.2c3.1,0.5,3.9-4.1,1.1-5.2c-2.1-0.8-4.7-1-7.3-0.5c-3.4,0.7-10.1,3.5-10.1,12.7C70.1,59.9,75.5,62.3,80.3,61.8
	"/>
<path style="fill:#EC1C24;" d="M50.4,69.6c0,0,2.8-1,3.1-1.1c2.3-0.8,3.1-2.1,3.1-4.5c0-2.5,0-7.5,0-7.5l6.6,7.6
	c1.1,1.1,2.4,1.2,3.6,0.8c1.3-0.4,2.3-1.5,2.4-3.2c0-5.5,0-18.8,0-18.8s-1.7,0.4-3.1,0.8c-1.6,0.5-2.9,1.5-2.9,4.2c0,1,0,6.5,0,6.5
	s-3.7-4.6-6.1-7.1c-1.3-1.3-3.4-0.5-3.4-0.5l-3.2,1L50.4,69.6z"/>
<path style="fill:#EC1C24;" d="M48.4,48.4c0,0-2,0.6-3.6,1.2c-2.1,0.8-3.3,2-3.3,5.1c0,2.9,0,18.1,0,18.1s1.8-0.6,3.5-1.3
	c2.4-0.9,3.3-2.2,3.3-4.7C48.4,64.5,48.4,48.4,48.4,48.4"/>
<path style="fill:#EC1C24;" d="M38.5,52.7c-1.8-0.8-3.4,0.1-4,1.1l-5.6,9.5l0-7.7l-6.6,2.7l0,21.7l4.6-1.9c0,0,0.9-0.3,1.5-1.1
	c0.5-0.8,0.5-2.1,0.5-2.1l0-6.9l5.2,5.5c1.1,1.2,3.2,1.8,5.1,0.3c1.7-1.3,1.4-3.6,0.5-4.7l-4.7-4.8c0,0,4.2-6.6,4.8-7.7
	C40.6,55.2,40.2,53.4,38.5,52.7"/>
<path style="fill:#EC1C24;" d="M25.5,49.7c0-1.2-0.9-1.8-2.5-1l0,3.8c0,0,0.5-0.2,0.9-0.4C24.8,51.7,25.5,50.9,25.5,49.7 M22.9,46.3
	c0.3-0.1,0.5-0.2,0.7-0.3c0.9-0.4,1.5-1.2,1.5-2.2c0-1.2-0.9-1.5-2.2-0.8L22.9,46.3z M29.7,49.2c0.1,3-2.1,4.6-5,5.8l-5.8,2.5
	l0-15.8c0,0,3.7-1.5,4.9-1.9c3.4-1.2,5.4,0.3,5.4,2.5c0,1.5-0.6,2.8-2.1,3.9C28.5,46.5,29.7,47.6,29.7,49.2"/>
<path style="fill:#EC1C24;" d="M40.8,35.9c0-1.3-0.9-1.7-2-1.4c-0.9,0.3-1.9,0.7-1.9,0.7l0,9.8c0,1-0.2,2.2-1.4,2.5
	c-0.9,0.2-1.4-0.4-1.4-1.4l0-8c0-1.3-0.9-1.7-2-1.4c-1.2,0.4-2,0.7-2,0.7s0,7,0,9.7c0,3.3,2.2,4.9,5.7,3.9c3-0.9,5-2.6,5.1-6.9
	L40.8,35.9z"/>
<path style="fill:#EC1C24;" d="M73.1,39.9c0.9-0.2,1.4-0.8,1.4-1.9c0-1,0-1.7,0-1.7l-4.7,1l0-2.8c0,0,2.3-0.5,3-0.6
	c0.8-0.2,1.2-0.6,1.2-1.5c0-0.9,0-1.6,0-1.6l-4.2,0.9l0-2.2c0,0,2.2-0.5,3.4-0.7c0.9-0.2,1.2-0.8,1.2-1.7c0-0.6,0-1.7,0-1.7
	c-2.1,0.4-6.1,1.2-8.5,1.7l0,14.4C65.8,41.6,70.6,40.5,73.1,39.9"/>
<path style="fill:#EC1C24;" d="M45.8,39.3c0,0,2.3-1.2,2.3-3.1c0-1.6-1.5-1.3-2.3-1L45.8,39.3z M45.8,41.5c0,0,0,2.8,0,3.9
	c0,1-0.7,1.8-1.6,2.1c-0.8,0.3-2.4,0.8-2.4,0.8l0-14.8c0,0,3.3-1.2,5.3-1.6c3-0.7,5.2,0.7,5.1,3.1c0,2.3-1.3,3.7-2.5,4.7l2.6,2.5
	c0.8,0.8,0.8,2.1,0,3c-0.5,0.5-1.9,1-3-0.1L45.8,41.5z"/>
<path style="fill:#EC1C24;" d="M79.3,31.4c0,0,2.3-0.9,2.3-2.7c0-1.6-1.6-1.3-2.3-1.1L79.3,31.4z M75.4,39.5l0-14.2
	c0,0,4.1-0.7,5.2-0.9c3-0.4,5,1.3,4.9,3.6c0,2.1-1.3,3.3-2.4,4c0,0,2,2.3,2.6,2.9c0.7,0.8,0.7,2.2-0.4,2.9c-1.1,0.7-2.1,0.3-2.7-0.4
	l-3.3-3.9c0,0,0,2.4,0,3.5c0,1-0.6,1.8-1.7,2L75.4,39.5z"/>
<path style="fill:#EC1C24;" d="M64.9,33.5L59,34.9c0,0,0,0.6,0,1.6c0,0.8,0.5,1.3,1.3,1.1c0.5-0.1,0.9-0.2,0.9-0.2l0,1.6
	c0,0.6-1,1.1-2,1c-1.4,0-2.2-1.1-2.2-3.2c0-2.7,1.3-4.4,3.1-4.8c0.9-0.2,1.7-0.1,2.3,0c1.5,0.2,2.4-0.5,2.4-1.7
	c0-1.3-1.2-2.2-3.7-2.1c-5.5,0.2-8.4,4.2-8.4,8.9c0,4.9,3.2,7,7.1,6.3c2.2-0.4,3.3-1.2,4-1.8c0.8-0.7,1.1-1.7,1.1-2.5L64.9,33.5z"/>
<path style="fill:#EC1C24;" d="M91.9,62.6h0.7c0.4,0,0.9,0.1,0.9,0.5c0,0.5-0.4,0.6-0.8,0.6h-0.8V62.6z M91,66.2h0.8v-1.8h0.5l1,1.8
	h0.9l-1.1-1.9c0.6-0.1,1.1-0.4,1.1-1.1c0-0.9-0.6-1.3-1.7-1.3H91V66.2z M88.6,64.1c0,2.3,1.9,3.8,3.9,3.8c2.1,0,3.9-1.5,3.9-3.8
	c0-2.3-1.9-3.8-3.9-3.8C90.5,60.3,88.6,61.8,88.6,64.1 M89.6,64.1c0-1.7,1.3-3,2.9-3c1.6,0,2.9,1.3,2.9,3c0,1.8-1.3,3-2.9,3
	C90.9,67.1,89.6,65.9,89.6,64.1"/>
</svg>
