<?xml version="1.0" encoding="utf-8"?>
<!-- Generator: Adobe Illustrator 16.0.4, SVG Export Plug-In . SVG Version: 6.00 Build 0)  -->
<!DOCTYPE svg PUBLIC "-//W3C//DTD SVG 1.1//EN" "http://www.w3.org/Graphics/SVG/1.1/DTD/svg11.dtd">
<svg version="1.1" id="Layer_1" xmlns="http://www.w3.org/2000/svg" xmlns:xlink="http://www.w3.org/1999/xlink" x="0px" y="0px"
	 width="24px" height="33px" viewBox="0 0 24 33" style="enable-background:new 0 0 24 33;" xml:space="preserve">
<path style="fill:#762823;" d="M24,12.4c0,2.7-0.6,4.8-1.7,6.4L12,33L1.7,18.8C0.6,17.3,0,15.1,0,12.4C0,9,1.2,6.1,3.5,3.6
	C5.9,1.2,8.7,0,12,0s6.1,1.2,8.5,3.6C22.8,6.1,24,9,24,12.4z M7,12.4c0,1.5,0.5,2.7,1.5,3.7c1,1,2.2,1.5,3.6,1.5s2.6-0.5,3.6-1.5
	c1-1,1.5-2.3,1.5-3.7c0-1.4-0.5-2.7-1.5-3.7c-1-1-2.2-1.5-3.6-1.5S9.4,7.7,8.4,8.7C7.5,9.8,7,11,7,12.4z"/>
</svg>
